<svg xmlns="http://www.w3.org/2000/svg" viewBox="0 0 64 64"><defs><style>.cls-1{isolation:isolate;}.cls-2{mix-blend-mode:multiply;}.cls-3{fill:#ea6e60;}.cls-4{fill:#f5f1e0;}.cls-5{fill:none;stroke:#3b342f;stroke-linecap:round;stroke-linejoin:round;stroke-width:2px;}</style></defs><title>maintenance</title><g class="cls-1"><g id="icons" class="cls-2"><g id="_Group_" data-name="&lt;Group&gt;"><path class="cls-3" d="M40.93,27.51a10,10,0,0,1-12.14,14,2,2,0,0,0-2.18.59c-5.95,7.42-13,15.42-14.07,16.48a5,5,0,0,1-7.08-7.08c1.06-1.06,9.06-8.12,16.48-14.07a2,2,0,0,0,.59-2.18,10,10,0,0,1,14-12.14,51.54,51.54,0,0,0-5.32,4.1,4,4,0,0,0,5.66,5.66A51.54,51.54,0,0,0,40.93,27.51Z"/><path class="cls-4" d="M60,29.56v4.88a2,2,0,0,1-1.51,1.94l-4.13,1a2.05,2.05,0,0,0-1.43,1.37A21.21,21.21,0,0,1,51.59,42a2,2,0,0,0,0,2l2.18,3.65a2,2,0,0,1-.3,2.44l-3.45,3.45a2,2,0,0,1-2.44.3L44,51.64a2,2,0,0,0-2,0,21.21,21.21,0,0,1-3.22,1.34,2.05,2.05,0,0,0-1.37,1.43l-1,4.13A2,2,0,0,1,34.44,60H29.56a2,2,0,0,1-1.94-1.51l-1.31-5.23a23,23,0,0,1-2.93-1l3.39-4.07a17,17,0,1,0-10.95-11l-4.07,3.39a23,23,0,0,1-1-2.93L5.51,36.38A2,2,0,0,1,4,34.44V29.56a2,2,0,0,1,1.51-1.94l4.13-1a2.05,2.05,0,0,0,1.43-1.37A21.21,21.21,0,0,1,12.41,22a2,2,0,0,0-.05-2l-2.18-3.65a2,2,0,0,1,.3-2.44l3.45-3.45a2,2,0,0,1,2.44-.3L20,12.36a2,2,0,0,0,2,.05,21.21,21.21,0,0,1,3.22-1.34,2.05,2.05,0,0,0,1.37-1.43l1-4.13A2,2,0,0,1,29.56,4h4.88a2,2,0,0,1,1.94,1.51l1,4.13a2.05,2.05,0,0,0,1.37,1.43A21.21,21.21,0,0,1,42,12.41a2,2,0,0,0,2-.05l3.65-2.18a2,2,0,0,1,2.44.3l3.45,3.45a2,2,0,0,1,.3,2.44L51.64,20a2,2,0,0,0,0,2,21.21,21.21,0,0,1,1.34,3.22,2.05,2.05,0,0,0,1.43,1.37l4.13,1A2,2,0,0,1,60,29.56Z"/><path class="cls-5" d="M40.93,27.51a51.54,51.54,0,0,1-4.1,5.32,4,4,0,0,1-5.66-5.66,51.54,51.54,0,0,1,5.32-4.1,10,10,0,0,0-14,12.14,2,2,0,0,1-.59,2.18c-7.42,6-15.42,13-16.48,14.07a5,5,0,0,0,7.08,7.08c1.06-1.06,8.12-9.06,14.07-16.48a2,2,0,0,1,2.18-.59,10,10,0,0,0,12.14-14Z"/><path class="cls-5" d="M58.49,27.62l-4.13-1a2.05,2.05,0,0,1-1.43-1.37A21.21,21.21,0,0,0,51.59,22a2,2,0,0,1,0-2l2.18-3.65a2,2,0,0,0-.3-2.44l-3.45-3.45a2,2,0,0,0-2.44-.3L44,12.36a2,2,0,0,1-2,.05,21.21,21.21,0,0,0-3.22-1.34,2.05,2.05,0,0,1-1.37-1.43l-1-4.13A2,2,0,0,0,34.44,4H29.56a2,2,0,0,0-1.94,1.51l-1,4.13a2.05,2.05,0,0,1-1.37,1.43A21.21,21.21,0,0,0,22,12.41a2,2,0,0,1-2-.05l-3.65-2.18a2,2,0,0,0-2.44.3l-3.45,3.45a2,2,0,0,0-.3,2.44L12.36,20a2,2,0,0,1,.05,2,21.21,21.21,0,0,0-1.34,3.22,2.05,2.05,0,0,1-1.43,1.37l-4.13,1A2,2,0,0,0,4,29.56v4.88a2,2,0,0,0,1.51,1.94l5.23,1.31a23,23,0,0,0,1,2.93l4.07-3.39a17,17,0,1,1,11,11l-3.39,4.07a23,23,0,0,0,2.93,1l1.31,5.23A2,2,0,0,0,29.56,60h4.88a2,2,0,0,0,1.94-1.51l1-4.13a2.05,2.05,0,0,1,1.37-1.43A21.21,21.21,0,0,0,42,51.59a2,2,0,0,1,2,0l3.65,2.18a2,2,0,0,0,2.44-.3l3.45-3.45a2,2,0,0,0,.3-2.44L51.64,44a2,2,0,0,1,0-2,21.21,21.21,0,0,0,1.34-3.22,2.05,2.05,0,0,1,1.43-1.37l4.13-1A2,2,0,0,0,60,34.44V29.56A2,2,0,0,0,58.49,27.62Z"/></g></g></g></svg>