<svg xmlns="http://www.w3.org/2000/svg" viewBox="0 0 64 64"><title>monitor-coin-calculator-graph</title><g id="monitor-coin-calculator-graph"><rect x="2" y="2" width="60" height="34" fill="#fff"/><rect x="5" y="5" width="54" height="28" fill="#ff504d"/><rect x="2" y="36" width="60" height="6" fill="#e6e6e6"/><polyline points="18 42 2 42 2 2 62 2 62 42 30 42" fill="none" stroke="#3e3948" stroke-linejoin="round" stroke-width="2"/><line x1="2" y1="36" x2="62" y2="36" fill="none" stroke="#3e3948" stroke-linejoin="round" stroke-width="2"/><line x1="31" y1="39" x2="33" y2="39" fill="none" stroke="#3e3948" stroke-linejoin="round" stroke-width="2"/><rect x="36" y="31" width="23" height="31" fill="#fff"/><rect x="36" y="31" width="23" height="7" fill="#5ce7ff"/><rect x="36" y="31" width="23" height="2" fill="#00c9e0"/><rect x="36" y="31" width="23" height="31" fill="none" stroke="#3e3948" stroke-miterlimit="10" stroke-width="2"/><line x1="35" y1="38" x2="60" y2="38" fill="none" stroke="#3e3948" stroke-miterlimit="10" stroke-width="2"/><rect x="39" y="41" width="5" height="5" fill="#e6e6e6"/><rect x="40" y="42" width="3" height="3" fill="#3e3948"/><rect x="45" y="41" width="5" height="5" fill="#e6e6e6"/><rect x="46" y="42" width="3" height="3" fill="#3e3948"/><rect x="51" y="41" width="5" height="5" fill="#e6e6e6"/><rect x="52" y="42" width="3" height="3" fill="#3e3948"/><rect x="39" y="48" width="5" height="5" fill="#e6e6e6"/><rect x="40" y="49" width="3" height="3" fill="#3e3948"/><rect x="45" y="48" width="5" height="5" fill="#e6e6e6"/><rect x="46" y="49" width="3" height="3" fill="#3e3948"/><rect x="51" y="48" width="5" height="5" fill="#e6e6e6"/><rect x="52" y="49" width="3" height="3" fill="#3e3948"/><rect x="39" y="55" width="5" height="5" fill="#e6e6e6"/><rect x="40" y="56" width="3" height="3" fill="#3e3948"/><rect x="45" y="55" width="5" height="5" fill="#e6e6e6"/><rect x="46" y="56" width="3" height="3" fill="#3e3948"/><rect x="51" y="55" width="5" height="5" fill="#e6e6e6"/><rect x="52" y="56" width="3" height="3" fill="#3e3948"/><rect x="3" y="54" width="16" height="4" fill="#fa3"/><rect x="7" y="50" width="8" height="4" fill="#fa3"/><rect x="3" y="46" width="12" height="4" fill="#fa3"/><polyline points="16 54 3 54 3 58 19 58 19 56" fill="none" stroke="#3e3948" stroke-miterlimit="10" stroke-width="2"/><line x1="7" y1="54" x2="7" y2="58" fill="none" stroke="#3e3948" stroke-miterlimit="10" stroke-width="2"/><line x1="11" y1="54" x2="11" y2="58" fill="none" stroke="#3e3948" stroke-miterlimit="10" stroke-width="2"/><line x1="15" y1="54" x2="15" y2="58" fill="none" stroke="#3e3948" stroke-miterlimit="10" stroke-width="2"/><polyline points="15 50 7 50 7 54 15 54" fill="none" stroke="#3e3948" stroke-miterlimit="10" stroke-width="2"/><line x1="11" y1="50" x2="11" y2="54" fill="none" stroke="#3e3948" stroke-miterlimit="10" stroke-width="2"/><line x1="15" y1="50" x2="15" y2="54" fill="none" stroke="#3e3948" stroke-miterlimit="10" stroke-width="2"/><rect x="3" y="46" width="12" height="4" fill="none" stroke="#3e3948" stroke-miterlimit="10" stroke-width="2"/><line x1="7" y1="46" x2="7" y2="50" fill="none" stroke="#3e3948" stroke-miterlimit="10" stroke-width="2"/><line x1="11" y1="46" x2="11" y2="50" fill="none" stroke="#3e3948" stroke-miterlimit="10" stroke-width="2"/><circle cx="24" cy="49" r="9" fill="#ffcb47"/><circle cx="24" cy="49" r="9" fill="none" stroke="#3e3948" stroke-miterlimit="10" stroke-width="2"/><path d="M27,47h0a2,2,0,0,0-2-2H23a2,2,0,0,0-2,2h0a2,2,0,0,0,2,2h2a2,2,0,0,1,2,2h0a2,2,0,0,1-2,2H23a2,2,0,0,1-2-2h0" fill="none" stroke="#3e3948" stroke-miterlimit="10" stroke-width="2"/><line x1="24" y1="56" x2="24" y2="53" fill="none" stroke="#3e3948" stroke-miterlimit="10" stroke-width="2"/><line x1="24" y1="45" x2="24" y2="42" fill="none" stroke="#3e3948" stroke-miterlimit="10" stroke-width="2"/><rect x="16" y="15" width="4" height="12" transform="translate(36 42) rotate(-180)" fill="#fff"/><rect x="30" y="19" width="4" height="8" transform="translate(64 46) rotate(-180)" fill="#fff"/><rect x="37" y="23" width="4" height="4" transform="translate(78 50) rotate(-180)" fill="#fff"/><rect x="23" y="17" width="4" height="10" transform="translate(50 44) rotate(-180)" fill="#fff"/><rect x="9" y="8" width="4" height="19" transform="translate(22 35) rotate(-180)" fill="#fff"/><line x1="45" y1="17" x2="56" y2="17" fill="none" stroke="#3e3948" stroke-miterlimit="10" stroke-width="2"/><line x1="45" y1="13" x2="56" y2="13" fill="none" stroke="#3e3948" stroke-miterlimit="10" stroke-width="2"/><line x1="45" y1="9" x2="52" y2="9" fill="none" stroke="#3e3948" stroke-miterlimit="10" stroke-width="2"/></g></svg>