<svg xmlns="http://www.w3.org/2000/svg" viewBox="0 0 128 128"><defs><style>.cls-1{isolation:isolate;}.cls-2{mix-blend-mode:multiply;}.cls-3,.cls-9{fill:none;stroke:#302a27;stroke-linecap:round;stroke-linejoin:round;stroke-width:2px;}.cls-3{opacity:0.24;}.cls-4{fill:#606769;}.cls-5{fill:#434a4f;}.cls-6{fill:#ea5656;}.cls-7{fill:#ca3b52;}.cls-8{fill:#f48570;}</style></defs><title>couch</title><g class="cls-1"><g id="icons" class="cls-2"><line class="cls-3" x1="16" y1="88" x2="112" y2="88"/><g id="_Group_" data-name="&lt;Group&gt;"><rect class="cls-4" x="20" y="82" width="8" height="6"/><rect class="cls-4" x="100" y="82" width="8" height="6"/><rect class="cls-5" x="20" y="82" width="8" height="3"/><rect class="cls-5" x="100" y="82" width="8" height="3"/><path class="cls-6" d="M107,67v6a2.006,2.006,0,0,1-2,2H23a2.006,2.006,0,0,1-2-2V67a2.006,2.006,0,0,1,2-2h82A2.006,2.006,0,0,1,107,67Z"/><path class="cls-7" d="M105,72H23a2.006,2.006,0,0,1-2-2v3a2.006,2.006,0,0,0,2,2h82a2.006,2.006,0,0,0,2-2V70A2.006,2.006,0,0,1,105,72Z"/><path class="cls-8" d="M105,65H23a2.006,2.006,0,0,0-2,2v3a2.006,2.006,0,0,1,2-2h82a2.006,2.006,0,0,1,2,2V67A2.006,2.006,0,0,0,105,65Z"/><path class="cls-6" d="M114,54V80a2.006,2.006,0,0,1-2,2H16a2.006,2.006,0,0,1-2-2V54a2.006,2.006,0,0,1,2-2h8a2.006,2.006,0,0,1,2,2V65H23a2.006,2.006,0,0,0-2,2v6a2.006,2.006,0,0,0,2,2h82a2.006,2.006,0,0,0,2-2V67a2.006,2.006,0,0,0-2-2h-3V54a2.006,2.006,0,0,1,2-2h8A2.006,2.006,0,0,1,114,54Z"/><path class="cls-7" d="M112,79H16a2.006,2.006,0,0,1-2-2v3a2.006,2.006,0,0,0,2,2h96a2.006,2.006,0,0,0,2-2V77A2.006,2.006,0,0,1,112,79Z"/><path class="cls-6" d="M108,42V52h-4a2.006,2.006,0,0,0-2,2V65H26V54a2.006,2.006,0,0,0-2-2H20V42a2.006,2.006,0,0,1,2-2h84A2.006,2.006,0,0,1,108,42Z"/><path class="cls-8" d="M106,40H22a2.006,2.006,0,0,0-2,2v3a2.006,2.006,0,0,1,2-2h84a2.006,2.006,0,0,1,2,2V42A2.006,2.006,0,0,0,106,40Z"/><path class="cls-8" d="M112,52h-8a2.006,2.006,0,0,0-2,2v3a2.006,2.006,0,0,1,2-2h8a2.006,2.006,0,0,1,2,2V54A2.006,2.006,0,0,0,112,52Z"/><path class="cls-8" d="M16,55h8a2.006,2.006,0,0,1,2,2V54a2.006,2.006,0,0,0-2-2H16a2.006,2.006,0,0,0-2,2v3A2.006,2.006,0,0,1,16,55Z"/><polyline class="cls-9" points="28 82 28 88 20 88 20 82"/><polyline class="cls-9" points="108 82 108 88 100 88 100 82"/><path class="cls-9" d="M26,65V54a2.006,2.006,0,0,0-2-2H16a2.006,2.006,0,0,0-2,2V80a2.006,2.006,0,0,0,2,2h96a2.006,2.006,0,0,0,2-2V54a2.006,2.006,0,0,0-2-2h-8a2.006,2.006,0,0,0-2,2V65"/><path class="cls-9" d="M102,65h3a2.006,2.006,0,0,1,2,2v6a2.006,2.006,0,0,1-2,2H23a2.006,2.006,0,0,1-2-2V67a2.006,2.006,0,0,1,2-2h79Z"/><path class="cls-9" d="M20,52V42a2.006,2.006,0,0,1,2-2h84a2.006,2.006,0,0,1,2,2V52"/><line class="cls-9" x1="64" y1="40" x2="64" y2="75"/></g></g></g></svg>