<svg xmlns="http://www.w3.org/2000/svg" viewBox="0 0 64 64"><title>hand-sale-coupon</title><g id="hand-sale-coupon"><rect x="8" y="10" width="50" height="26" fill="#ffcb47"/><rect x="11" y="13" width="44" height="20" fill="#ff504d"/><path d="M56.69,15.1a6.15,6.15,0,0,1-3.9-3.77L52.32,10H58v5.52Z" fill="#00c9e0"/><path d="M8,10h5.68l-.47,1.33a6.15,6.15,0,0,1-3.9,3.77L8,15.52Z" fill="#00c9e0"/><path d="M46.25,2A3.64,3.64,0,0,0,42.5,5.5a3.76,3.76,0,0,0-7.5,0,3.76,3.76,0,0,0-7.5,0,3.76,3.76,0,0,0-7.5,0V10H50V5.5A3.64,3.64,0,0,0,46.25,2Z" fill="#fff"/><path d="M29.6,37.79a8.69,8.69,0,0,1,3.21,5.15A8.76,8.76,0,0,0,24.41,36H19.5l-6.1-6.91a4.2,4.2,0,0,0-4.78-1.16L8,28.18v.08A4.15,4.15,0,0,0,6,31.8v.44a4.17,4.17,0,0,0,.94,2.63L22,53.24V63H46V54l2.25-2.66A9.43,9.43,0,0,0,50,45.53V36H27.29Zm3.25,5.36c0,.21.08.42.1.63C32.92,43.57,32.89,43.36,32.85,43.15Z" fill="#fff"/><path d="M52.31,36l.29-1.23a6.14,6.14,0,0,1,4.09-4.39L58,30v6Z" fill="#00c9e0"/><path d="M50,36.58v8.95a9.56,9.56,0,0,1-1.78,5.86L46,54v9" fill="none" stroke="#3e3948" stroke-miterlimit="10" stroke-width="2"/><path d="M20,9V5.5A3.63,3.63,0,0,1,23.75,2h0A3.63,3.63,0,0,1,27.5,5.5v0A3.63,3.63,0,0,1,31.25,2h0A3.63,3.63,0,0,1,35,5.5v0A3.63,3.63,0,0,1,38.75,2h0A3.63,3.63,0,0,1,42.5,5.5v0A3.63,3.63,0,0,1,46.25,2h0A3.63,3.63,0,0,1,50,5.5V9" fill="none" stroke="#3e3948" stroke-miterlimit="10" stroke-width="2"/><path d="M22,63V53.24l-15-18.37A4.16,4.16,0,0,1,6,32.24V31.8a4.19,4.19,0,0,1,4.2-4.18h0a4.21,4.21,0,0,1,3.19,1.46L19.5,36h1.23" fill="none" stroke="#3e3948" stroke-miterlimit="10" stroke-width="2"/><polyline points="8 28 8 10 58 10 58 36 19.64 36" fill="none" stroke="#3e3948" stroke-miterlimit="10" stroke-width="2"/><path d="M52.43,9.32a6.12,6.12,0,0,0,6.14,6.1" fill="none" stroke="#3e3948" stroke-miterlimit="10" stroke-width="2"/><path d="M7.43,15.42a6.12,6.12,0,0,0,6.14-6.1" fill="none" stroke="#3e3948" stroke-miterlimit="10" stroke-width="2"/><path d="M58.57,30.06a6.12,6.12,0,0,0-6.14,6.1" fill="none" stroke="#3e3948" stroke-miterlimit="10" stroke-width="2"/><path d="M24.41,36.18V36A8.72,8.72,0,0,1,33,44.72V50" fill="none" stroke="#3e3948" stroke-miterlimit="10" stroke-width="2"/><polyline points="24 20 19 20 19 23 23 23 23 26 18 26" fill="none" stroke="#3e3948" stroke-miterlimit="10" stroke-width="2"/><polyline points="48 20 43 20 43 26 48 26" fill="none" stroke="#3e3948" stroke-miterlimit="10" stroke-width="2"/><line x1="48" y1="23" x2="43" y2="23" fill="none" stroke="#3e3948" stroke-miterlimit="10" stroke-width="2"/><polyline points="35 19 35 26 40 26" fill="none" stroke="#3e3948" stroke-miterlimit="10" stroke-width="2"/><polyline points="27 27 27 20 31 20 31 27" fill="none" stroke="#3e3948" stroke-miterlimit="10" stroke-width="2"/><line x1="27" y1="24" x2="31" y2="24" fill="none" stroke="#3e3948" stroke-miterlimit="10" stroke-width="2"/><line x1="51" y1="23" x2="53" y2="23" fill="none" stroke="#3e3948" stroke-miterlimit="10" stroke-width="2"/><line x1="13" y1="23" x2="15" y2="23" fill="none" stroke="#3e3948" stroke-miterlimit="10" stroke-width="2"/></g></svg>